<svg width="1980" height="1024" viewBox="0 0 1980 1024" fill="none" xmlns="http://www.w3.org/2000/svg">
<rect width="1980" height="1024" fill="url(#paint0_linear_128_4)"/>
<path d="M497.921 269.778C500.643 268.983 502.886 272.004 501.337 274.381L499.813 276.717C499.326 277.464 499.19 278.387 499.44 279.243L500.222 281.92C501.017 284.643 497.996 286.886 495.62 285.337L493.283 283.813C492.536 283.326 491.613 283.19 490.757 283.44L488.08 284.222C485.357 285.017 483.114 281.996 484.663 279.619L486.187 277.283C486.674 276.536 486.811 275.613 486.561 274.757L485.779 272.08C484.983 269.357 488.005 267.114 490.381 268.663L492.717 270.187C493.464 270.674 494.387 270.81 495.243 270.56L497.921 269.778Z" fill="#C7BAEF"/>
<path d="M834.154 389.789C833.963 386.959 837.396 385.418 839.383 387.443L841.337 389.433C841.962 390.07 842.834 390.401 843.723 390.341L846.506 390.154C849.337 389.963 850.877 393.396 848.853 395.383L846.862 397.337C846.226 397.962 845.894 398.834 845.954 399.723L846.142 402.506C846.333 405.337 842.9 406.877 840.912 404.853L838.958 402.862C838.334 402.226 837.462 401.894 836.572 401.954L833.789 402.142C830.959 402.333 829.418 398.9 831.443 396.912L833.433 394.958C834.07 394.334 834.401 393.462 834.341 392.572L834.154 389.789Z" fill="#C7BAEF"/>
<path d="M907.154 901.789C906.963 898.959 910.396 897.418 912.383 899.443L914.337 901.433C914.962 902.07 915.834 902.401 916.723 902.341L919.506 902.154C922.337 901.963 923.877 905.396 921.853 907.383L919.862 909.337C919.226 909.962 918.894 910.834 918.954 911.723L919.142 914.506C919.333 917.337 915.9 918.877 913.912 916.853L911.958 914.862C911.334 914.226 910.462 913.894 909.572 913.954L906.789 914.142C903.959 914.333 902.418 910.9 904.443 908.912L906.433 906.958C907.07 906.334 907.401 905.462 907.341 904.572L907.154 901.789Z" fill="#BAEAEF"/>
<path d="M1228.23 877.457C1227 874.898 1229.62 872.197 1232.22 873.343L1234.77 874.47C1235.58 874.83 1236.52 874.815 1237.32 874.431L1239.84 873.227C1242.4 872.002 1245.1 874.622 1243.95 877.217L1242.83 879.769C1242.47 880.585 1242.48 881.517 1242.86 882.322L1244.07 884.838C1245.29 887.397 1242.67 890.098 1240.08 888.952L1237.53 887.826C1236.71 887.466 1235.78 887.48 1234.97 887.865L1232.46 889.069C1229.9 890.293 1227.2 887.673 1228.34 885.078L1229.47 882.526C1229.83 881.711 1229.82 880.778 1229.43 879.973L1228.23 877.457Z" fill="#BAEAEF"/>
<path d="M669.126 56.5692C668.979 53.7363 672.435 52.2495 674.391 54.3044L676.314 56.325C676.929 56.971 677.795 57.3163 678.686 57.2701L681.471 57.1256C684.304 56.9787 685.791 60.4353 683.736 62.3908L681.715 64.3137C681.069 64.9286 680.724 65.7949 680.77 66.6856L680.915 69.4712C681.062 72.3041 677.605 73.7909 675.65 71.736L673.727 69.7154C673.112 69.0694 672.245 68.7241 671.355 68.7703L668.569 68.9148C665.736 69.0617 664.249 65.6051 666.304 63.6496L668.325 61.7267C668.971 61.1118 669.316 60.2455 669.27 59.3548L669.126 56.5692Z" fill="#EFC8BA"/>
<path d="M1040.19 78.6401C1042.72 77.3767 1045.47 79.9548 1044.36 82.5671L1043.27 85.1359C1042.93 85.9572 1042.95 86.8894 1043.35 87.6879L1044.59 90.1853C1045.86 92.7251 1043.28 95.466 1040.67 94.3603L1038.1 93.2731C1037.28 92.9255 1036.34 92.954 1035.55 93.3512L1033.05 94.5935C1030.51 95.8569 1027.77 93.2789 1028.87 90.6665L1029.96 88.0978C1030.31 87.2765 1030.28 86.3443 1029.88 85.5458L1028.64 83.0483C1027.38 80.5085 1029.95 77.7677 1032.57 78.8733L1035.14 79.9606C1035.96 80.3082 1036.89 80.2796 1037.69 79.8824L1040.19 78.6401Z" fill="#EFC8BA"/>
<path d="M1300.63 505.364C1303.09 503.953 1305.98 506.365 1305.03 509.038L1304.09 511.667C1303.8 512.507 1303.88 513.436 1304.32 514.209L1305.71 516.629C1307.12 519.09 1304.71 521.978 1302.04 521.028L1299.41 520.094C1298.57 519.796 1297.64 519.879 1296.86 520.323L1294.44 521.71C1291.98 523.121 1289.1 520.708 1290.05 518.035L1290.98 515.407C1291.28 514.567 1291.19 513.638 1290.75 512.864L1289.36 510.444C1287.95 507.983 1290.37 505.095 1293.04 506.045L1295.67 506.979C1296.51 507.278 1297.44 507.195 1298.21 506.751L1300.63 505.364Z" fill="#C7BAEF"/>
<path d="M1325.58 736.236C1328.39 735.84 1330.18 739.152 1328.3 741.281L1326.46 743.375C1325.87 744.044 1325.6 744.938 1325.73 745.821L1326.12 748.583C1326.51 751.392 1323.2 753.178 1321.07 751.303L1318.98 749.46C1318.31 748.871 1317.42 748.603 1316.53 748.728L1313.77 749.117C1310.96 749.513 1309.18 746.201 1311.05 744.072L1312.89 741.978C1313.48 741.309 1313.75 740.416 1313.63 739.533L1313.24 736.77C1312.84 733.962 1316.15 732.176 1318.28 734.05L1320.38 735.894C1321.04 736.483 1321.94 736.75 1322.82 736.626L1325.58 736.236Z" fill="#C7BAEF"/>
<path d="M1733.63 891.364C1736.09 889.953 1738.98 892.365 1738.03 895.038L1737.09 897.667C1736.8 898.507 1736.88 899.436 1737.32 900.209L1738.71 902.629C1740.12 905.09 1737.71 907.978 1735.04 907.028L1732.41 906.094C1731.57 905.796 1730.64 905.879 1729.86 906.323L1727.44 907.71C1724.98 909.121 1722.1 906.708 1723.05 904.035L1723.98 901.407C1724.28 900.567 1724.19 899.638 1723.75 898.864L1722.36 896.444C1720.95 893.983 1723.37 891.095 1726.04 892.045L1728.67 892.979C1729.51 893.278 1730.44 893.195 1731.21 892.751L1733.63 891.364Z" fill="#C7BAEF"/>
<path d="M1437.63 615.364C1440.09 613.953 1442.98 616.365 1442.03 619.038L1441.09 621.667C1440.8 622.507 1440.88 623.436 1441.32 624.209L1442.71 626.629C1444.12 629.09 1441.71 631.978 1439.04 631.028L1436.41 630.094C1435.57 629.796 1434.64 629.879 1433.86 630.323L1431.44 631.71C1428.98 633.121 1426.1 630.708 1427.05 628.035L1427.98 625.407C1428.28 624.567 1428.19 623.638 1427.75 622.864L1426.36 620.444C1424.95 617.983 1427.37 615.095 1430.04 616.045L1432.67 616.979C1433.51 617.278 1434.44 617.195 1435.21 616.751L1437.63 615.364Z" fill="#C7BAEF"/>
<path d="M139.134 469.745C140.119 467.084 143.881 467.084 144.866 469.745L145.834 472.361C146.143 473.197 146.803 473.857 147.639 474.166L150.255 475.134C152.916 476.119 152.916 479.881 150.255 480.866L147.639 481.834C146.803 482.143 146.143 482.803 145.834 483.639L144.866 486.255C143.881 488.916 140.119 488.916 139.134 486.255L138.166 483.639C137.857 482.803 137.197 482.143 136.361 481.834L133.745 480.866C131.084 479.881 131.084 476.119 133.745 475.134L136.361 474.166C137.197 473.857 137.857 473.197 138.166 472.361L139.134 469.745Z" fill="#BAD3EF"/>
<path d="M86.3796 99.728C88.674 98.06 91.8053 100.147 91.1493 102.906L90.5042 105.62C90.298 106.488 90.4811 107.402 91.0055 108.124L92.6458 110.38C94.3138 112.674 92.2273 115.805 89.4675 115.149L86.7537 114.504C85.8861 114.298 84.9716 114.481 84.2502 115.006L81.9941 116.646C79.6996 118.314 76.5683 116.227 77.2243 113.468L77.8694 110.754C78.0756 109.886 77.8925 108.972 77.3681 108.25L75.7279 105.994C74.0598 103.7 76.1463 100.569 78.9061 101.225L81.6199 101.87C82.4876 102.076 83.402 101.893 84.1234 101.368L86.3796 99.728Z" fill="#EFCABA"/>
<path d="M349.38 82.728C351.674 81.06 354.805 83.1465 354.149 85.9063L353.504 88.6201C353.298 89.4877 353.481 90.4022 354.006 91.1236L355.646 93.3797C357.314 95.6742 355.227 98.8055 352.468 98.1495L349.754 97.5044C348.886 97.2982 347.972 97.4813 347.25 98.0057L344.994 99.6459C342.7 101.314 339.568 99.2275 340.224 96.4677L340.869 93.7539C341.076 92.8862 340.893 91.9718 340.368 91.2504L338.728 88.9942C337.06 86.6998 339.146 83.5685 341.906 84.2245L344.62 84.8696C345.488 85.0758 346.402 84.8927 347.123 84.3683L349.38 82.728Z" fill="#EFCABA"/>
<path d="M1008.81 679.911C1011.09 678.408 1014.05 680.437 1013.47 683.111L1012.18 689.068C1012.12 689.338 1012.1 689.614 1012.12 689.89L1012.47 695.975C1012.63 698.706 1009.39 700.253 1007.36 698.414L1002.85 694.319C1002.65 694.134 1002.42 693.976 1002.17 693.852L996.725 691.115C994.281 689.886 994.559 686.31 997.164 685.475L1002.97 683.613C1003.23 683.529 1003.48 683.409 1003.71 683.257L1008.81 679.911Z" fill="#B1B2EE"/>
<path d="M1529.05 624.156C1531.34 622.653 1534.29 624.682 1533.72 627.356L1532.43 633.313C1532.37 633.583 1532.35 633.86 1532.36 634.136L1532.71 640.22C1532.87 642.951 1529.64 644.498 1527.61 642.66L1523.1 638.564C1522.89 638.379 1522.66 638.222 1522.42 638.098L1516.97 635.36C1514.53 634.131 1514.8 630.556 1517.41 629.72L1523.21 627.858C1523.48 627.774 1523.73 627.654 1523.96 627.502L1529.05 624.156Z" fill="#ADE8F3"/>
<path d="M1834.32 103.981C1833.53 101.363 1836.31 99.1011 1838.71 100.413L1844.06 103.336C1844.3 103.468 1844.56 103.568 1844.83 103.63L1850.77 105.015C1853.43 105.637 1854 109.178 1851.66 110.601L1846.46 113.771C1846.22 113.915 1846 114.09 1845.81 114.292L1841.65 118.739C1839.78 120.736 1836.43 119.457 1836.36 116.721L1836.22 110.628C1836.21 110.352 1836.17 110.078 1836.09 109.814L1834.32 103.981Z" fill="#ADE8F3"/>
<path d="M653.888 674.12C656.391 673.015 658.973 675.503 657.962 678.045L655.709 683.708C655.607 683.965 655.54 684.234 655.51 684.509L654.855 690.569C654.561 693.289 651.115 694.281 649.419 692.134L645.641 687.351C645.47 687.135 645.27 686.942 645.047 686.779L640.127 683.182C637.919 681.567 638.782 678.086 641.489 677.691L647.52 676.811C647.794 676.771 648.06 676.694 648.313 676.582L653.888 674.12Z" fill="#B1B2EE"/>
<path d="M337.194 846.402C335.899 843.992 338.181 841.226 340.794 842.039L346.613 843.849C346.877 843.931 347.151 843.977 347.427 843.985L353.519 844.172C356.253 844.256 357.508 847.616 355.498 849.472L351.02 853.606C350.817 853.794 350.641 854.008 350.495 854.243L347.287 859.425C345.847 861.751 342.311 861.158 341.708 858.49L340.367 852.545C340.306 852.275 340.209 852.015 340.078 851.771L337.194 846.402Z" fill="#B1B2EE"/>
<path d="M1714.82 327.662C1716.93 325.924 1720.09 327.625 1719.8 330.345L1719.15 336.406C1719.12 336.681 1719.13 336.958 1719.18 337.231L1720.18 343.243C1720.63 345.941 1717.58 347.825 1715.36 346.214L1710.44 342.626C1710.21 342.463 1709.97 342.331 1709.71 342.234L1704 340.095C1701.44 339.134 1701.34 335.55 1703.84 334.44L1709.41 331.969C1709.66 331.856 1709.9 331.711 1710.11 331.535L1714.82 327.662Z" fill="#DDB1EE"/>
<path d="M1730.49 627.337C1732.6 625.599 1735.76 627.299 1735.47 630.02L1734.83 636.08C1734.8 636.355 1734.81 636.633 1734.85 636.905L1735.85 642.917C1736.3 645.616 1733.25 647.5 1731.04 645.889L1726.11 642.3C1725.89 642.137 1725.64 642.006 1725.39 641.909L1719.68 639.769C1717.12 638.809 1717.01 635.224 1719.51 634.115L1725.08 631.643C1725.34 631.531 1725.57 631.385 1725.79 631.209L1730.49 627.337Z" fill="#DDB1EE"/>
<defs>
<linearGradient id="paint0_linear_128_4" x1="990" y1="0" x2="990" y2="1024" gradientUnits="userSpaceOnUse">
<stop stop-color="#E8CFE2"/>
<stop offset="0.509615" stop-color="#BFB7ED"/>
<stop offset="1" stop-color="#C1D2F2"/>
</linearGradient>
</defs>
</svg>
