<svg width="319" height="167" viewBox="0 0 319 167" fill="none" xmlns="http://www.w3.org/2000/svg">
<mask id="path-1-inside-1_129_48" fill="white">
<rect width="319" height="167" rx="8"/>
</mask>
<rect width="319" height="167" rx="8" fill="url(#paint0_linear_129_48)"/>
<rect width="319" height="167" rx="8" stroke="#69D5F3" stroke-width="24" mask="url(#path-1-inside-1_129_48)"/>
<path d="M29.5227 94V64.9091H47.0795V68.0341H33.0455V77.8636H46.1705V80.9886H33.0455V90.875H47.3068V94H29.5227ZM55.4744 72.1818L60.7017 81.1023L65.929 72.1818H69.7926L62.7472 83.0909L69.7926 94H65.929L60.7017 85.5341L55.4744 94H51.6108L58.5426 83.0909L51.6108 72.1818H55.4744ZM80.9964 94.5114C79.6139 94.5114 78.3591 94.2509 77.2322 93.7301C76.1054 93.1998 75.2105 92.4375 74.5476 91.4432C73.8847 90.4394 73.5533 89.2273 73.5533 87.8068C73.5533 86.5568 73.7995 85.5436 74.2919 84.767C74.7843 83.9811 75.4425 83.3655 76.2663 82.9205C77.0902 82.4754 77.9993 82.1439 78.9936 81.9261C79.9974 81.6989 81.0059 81.5189 82.0192 81.3864C83.3449 81.2159 84.4197 81.0881 85.2436 81.0028C86.0769 80.9081 86.683 80.7519 87.0618 80.5341C87.45 80.3163 87.6442 79.9375 87.6442 79.3977V79.2841C87.6442 77.8826 87.2607 76.7936 86.4936 76.017C85.736 75.2405 84.5855 74.8523 83.0419 74.8523C81.4415 74.8523 80.1868 75.2027 79.2777 75.9034C78.3686 76.6042 77.7294 77.3523 77.3601 78.1477L74.1783 77.0114C74.7464 75.6856 75.504 74.6534 76.451 73.9148C77.4074 73.1667 78.4491 72.6458 79.576 72.3523C80.7124 72.0492 81.8298 71.8977 82.9283 71.8977C83.629 71.8977 84.4339 71.983 85.343 72.1534C86.2616 72.3144 87.147 72.6506 87.9993 73.1619C88.861 73.6733 89.576 74.4451 90.1442 75.4773C90.7124 76.5095 90.9964 77.892 90.9964 79.625V94H87.6442V91.0455H87.4737C87.2464 91.5189 86.8677 92.0256 86.3374 92.5653C85.8071 93.1051 85.1016 93.5644 84.2209 93.9432C83.3402 94.322 82.2654 94.5114 80.9964 94.5114ZM81.5078 91.5C82.8336 91.5 83.951 91.2396 84.8601 90.7188C85.7786 90.1979 86.4699 89.5256 86.9339 88.7017C87.4074 87.8778 87.6442 87.0114 87.6442 86.1023V83.0341C87.5021 83.2045 87.1896 83.3608 86.7067 83.5028C86.2332 83.6354 85.6839 83.7538 85.0589 83.858C84.4434 83.9527 83.8421 84.0379 83.255 84.1136C82.6773 84.1799 82.2086 84.2367 81.8487 84.2841C80.9775 84.3977 80.1631 84.5824 79.4055 84.8381C78.6574 85.0843 78.0514 85.4583 77.5874 85.9602C77.1328 86.4527 76.9055 87.125 76.9055 87.9773C76.9055 89.142 77.3364 90.0227 78.1982 90.6193C79.0694 91.2064 80.1726 91.5 81.5078 91.5ZM97.1151 94V72.1818H100.354V75.5909H100.638C101.092 74.4261 101.826 73.5218 102.839 72.8778C103.853 72.2244 105.07 71.8977 106.49 71.8977C107.929 71.8977 109.127 72.2244 110.084 72.8778C111.05 73.5218 111.803 74.4261 112.342 75.5909H112.57C113.128 74.464 113.966 73.5691 115.084 72.9062C116.201 72.2339 117.541 71.8977 119.104 71.8977C121.054 71.8977 122.65 72.5085 123.891 73.7301C125.131 74.9422 125.751 76.8314 125.751 79.3977V94H122.399V79.3977C122.399 77.7879 121.959 76.6373 121.078 75.946C120.197 75.2547 119.161 74.9091 117.967 74.9091C116.433 74.9091 115.245 75.3731 114.402 76.3011C113.559 77.2197 113.138 78.3845 113.138 79.7955V94H109.729V79.0568C109.729 77.8163 109.326 76.8172 108.521 76.0597C107.716 75.2926 106.679 74.9091 105.411 74.9091C104.539 74.9091 103.725 75.1411 102.967 75.6051C102.219 76.0691 101.613 76.7131 101.149 77.5369C100.695 78.3513 100.467 79.2936 100.467 80.3636V94H97.1151ZM131.881 102.182V72.1818H135.119V75.6477H135.517C135.763 75.2689 136.104 74.786 136.54 74.1989C136.985 73.6023 137.619 73.072 138.443 72.608C139.277 72.1345 140.403 71.8977 141.824 71.8977C143.661 71.8977 145.28 72.357 146.682 73.2756C148.083 74.1941 149.177 75.4962 149.963 77.1818C150.749 78.8674 151.142 80.8561 151.142 83.1477C151.142 85.4583 150.749 87.4612 149.963 89.1562C149.177 90.8419 148.088 92.1487 146.696 93.0767C145.304 93.9953 143.699 94.4545 141.881 94.4545C140.479 94.4545 139.357 94.2225 138.514 93.7585C137.671 93.285 137.023 92.75 136.568 92.1534C136.114 91.5473 135.763 91.0455 135.517 90.6477H135.233V102.182H131.881ZM135.176 83.0909C135.176 84.7386 135.418 86.1922 135.901 87.4517C136.384 88.7017 137.089 89.6818 138.017 90.392C138.945 91.0928 140.081 91.4432 141.426 91.4432C142.828 91.4432 143.997 91.0739 144.935 90.3352C145.882 89.5871 146.592 88.5833 147.065 87.3239C147.548 86.0549 147.79 84.6439 147.79 83.0909C147.79 81.5568 147.553 80.1742 147.08 78.9432C146.616 77.7027 145.91 76.7225 144.963 76.0028C144.026 75.2737 142.847 74.9091 141.426 74.9091C140.063 74.9091 138.917 75.2547 137.989 75.946C137.061 76.6278 136.36 77.5843 135.886 78.8153C135.413 80.0369 135.176 81.4621 135.176 83.0909ZM159.608 64.9091V94H156.256V64.9091H159.608ZM174.896 94.4545C172.793 94.4545 170.98 93.9905 169.455 93.0625C167.94 92.125 166.771 90.8182 165.947 89.142C165.132 87.4564 164.725 85.4962 164.725 83.2614C164.725 81.0265 165.132 79.0568 165.947 77.3523C166.771 75.6383 167.916 74.303 169.384 73.3466C170.862 72.3807 172.585 71.8977 174.555 71.8977C175.691 71.8977 176.813 72.0871 177.921 72.4659C179.029 72.8447 180.038 73.4602 180.947 74.3125C181.856 75.1553 182.58 76.2727 183.12 77.6648C183.66 79.0568 183.93 80.7708 183.93 82.8068V84.2273H167.112V81.3295H180.521C180.521 80.0985 180.274 79 179.782 78.0341C179.299 77.0682 178.608 76.3059 177.708 75.7472C176.818 75.1884 175.767 74.9091 174.555 74.9091C173.219 74.9091 172.064 75.2405 171.089 75.9034C170.123 76.5568 169.379 77.4091 168.859 78.4602C168.338 79.5114 168.077 80.6383 168.077 81.8409V83.7727C168.077 85.4205 168.362 86.8172 168.93 87.9631C169.507 89.0994 170.308 89.9659 171.33 90.5625C172.353 91.1496 173.541 91.4432 174.896 91.4432C175.776 91.4432 176.572 91.3201 177.282 91.0739C178.002 90.8182 178.622 90.4394 179.143 89.9375C179.664 89.4261 180.066 88.7917 180.35 88.0341L183.589 88.9432C183.248 90.0417 182.675 91.0076 181.87 91.8409C181.065 92.6648 180.071 93.3087 178.887 93.7727C177.703 94.2273 176.373 94.4545 174.896 94.4545ZM200.734 94V64.9091H204.256V90.875H217.779V94H200.734ZM231.643 94.4545C229.673 94.4545 227.945 93.9858 226.458 93.0483C224.981 92.1108 223.826 90.7992 222.992 89.1136C222.168 87.428 221.756 85.4583 221.756 83.2045C221.756 80.9318 222.168 78.9479 222.992 77.2528C223.826 75.5578 224.981 74.2415 226.458 73.304C227.945 72.3665 229.673 71.8977 231.643 71.8977C233.612 71.8977 235.336 72.3665 236.813 73.304C238.3 74.2415 239.455 75.5578 240.279 77.2528C241.112 78.9479 241.529 80.9318 241.529 83.2045C241.529 85.4583 241.112 87.428 240.279 89.1136C239.455 90.7992 238.3 92.1108 236.813 93.0483C235.336 93.9858 233.612 94.4545 231.643 94.4545ZM231.643 91.4432C233.139 91.4432 234.37 91.0597 235.336 90.2926C236.302 89.5256 237.017 88.517 237.481 87.267C237.945 86.017 238.177 84.6629 238.177 83.2045C238.177 81.7462 237.945 80.3873 237.481 79.1278C237.017 77.8684 236.302 76.8504 235.336 76.0739C234.37 75.2973 233.139 74.9091 231.643 74.9091C230.147 74.9091 228.915 75.2973 227.95 76.0739C226.984 76.8504 226.269 77.8684 225.805 79.1278C225.341 80.3873 225.109 81.7462 225.109 83.2045C225.109 84.6629 225.341 86.017 225.805 87.267C226.269 88.517 226.984 89.5256 227.95 90.2926C228.915 91.0597 230.147 91.4432 231.643 91.4432ZM255.453 102.636C253.834 102.636 252.442 102.428 251.277 102.011C250.112 101.604 249.142 101.064 248.365 100.392C247.598 99.7292 246.987 99.0189 246.533 98.2614L249.203 96.3864C249.506 96.7841 249.89 97.2386 250.354 97.75C250.818 98.2708 251.452 98.7206 252.257 99.0994C253.071 99.4877 254.137 99.6818 255.453 99.6818C257.214 99.6818 258.668 99.2557 259.814 98.4034C260.96 97.5511 261.533 96.2159 261.533 94.3977V89.9659H261.249C261.002 90.3636 260.652 90.8561 260.197 91.4432C259.752 92.0208 259.108 92.5369 258.266 92.9915C257.432 93.4366 256.305 93.6591 254.885 93.6591C253.124 93.6591 251.542 93.2424 250.141 92.4091C248.749 91.5758 247.645 90.3636 246.831 88.7727C246.026 87.1818 245.624 85.25 245.624 82.9773C245.624 80.7424 246.017 78.7964 246.803 77.1392C247.589 75.4725 248.682 74.1847 250.084 73.2756C251.485 72.357 253.105 71.8977 254.942 71.8977C256.362 71.8977 257.489 72.1345 258.322 72.608C259.165 73.072 259.809 73.6023 260.254 74.1989C260.709 74.786 261.059 75.2689 261.305 75.6477H261.646V72.1818H264.885V94.625C264.885 96.5 264.459 98.0246 263.607 99.1989C262.764 100.383 261.627 101.249 260.197 101.798C258.777 102.357 257.196 102.636 255.453 102.636ZM255.339 90.6477C256.684 90.6477 257.821 90.34 258.749 89.7244C259.677 89.1089 260.382 88.2235 260.865 87.0682C261.348 85.9129 261.589 84.5303 261.589 82.9205C261.589 81.3485 261.353 79.9612 260.879 78.7585C260.406 77.5559 259.705 76.6136 258.777 75.9318C257.849 75.25 256.703 74.9091 255.339 74.9091C253.919 74.9091 252.735 75.2689 251.788 75.9886C250.851 76.7083 250.145 77.6742 249.672 78.8864C249.208 80.0985 248.976 81.4432 248.976 82.9205C248.976 84.4356 249.213 85.7756 249.686 86.9403C250.169 88.0956 250.879 89.0047 251.817 89.6676C252.764 90.321 253.938 90.6477 255.339 90.6477ZM279.885 94.4545C277.915 94.4545 276.187 93.9858 274.7 93.0483C273.223 92.1108 272.068 90.7992 271.234 89.1136C270.411 87.428 269.999 85.4583 269.999 83.2045C269.999 80.9318 270.411 78.9479 271.234 77.2528C272.068 75.5578 273.223 74.2415 274.7 73.304C276.187 72.3665 277.915 71.8977 279.885 71.8977C281.855 71.8977 283.578 72.3665 285.055 73.304C286.542 74.2415 287.697 75.5578 288.521 77.2528C289.355 78.9479 289.771 80.9318 289.771 83.2045C289.771 85.4583 289.355 87.428 288.521 89.1136C287.697 90.7992 286.542 92.1108 285.055 93.0483C283.578 93.9858 281.855 94.4545 279.885 94.4545ZM279.885 91.4432C281.381 91.4432 282.612 91.0597 283.578 90.2926C284.544 89.5256 285.259 88.517 285.723 87.267C286.187 86.017 286.419 84.6629 286.419 83.2045C286.419 81.7462 286.187 80.3873 285.723 79.1278C285.259 77.8684 284.544 76.8504 283.578 76.0739C282.612 75.2973 281.381 74.9091 279.885 74.9091C278.389 74.9091 277.158 75.2973 276.192 76.0739C275.226 76.8504 274.511 77.8684 274.047 79.1278C273.583 80.3873 273.351 81.7462 273.351 83.2045C273.351 84.6629 273.583 86.017 274.047 87.267C274.511 88.517 275.226 89.5256 276.192 90.2926C277.158 91.0597 278.389 91.4432 279.885 91.4432Z" fill="#010101"/>
<defs>
<linearGradient id="paint0_linear_129_48" x1="1.26261e-05" y1="83.008" x2="319" y2="84.034" gradientUnits="userSpaceOnUse">
<stop stop-color="#ABED97"/>
<stop offset="0.331731" stop-color="#63D39B"/>
<stop offset="0.688996" stop-color="#699ED9"/>
<stop offset="1" stop-color="#9377E8"/>
</linearGradient>
</defs>
</svg>
