<svg width="24" height="24" viewBox="0 0 24 24" fill="none" xmlns="http://www.w3.org/2000/svg">
<path d="M6.66667 3.33337H2.66667C1.95942 3.33337 1.28115 3.61433 0.781049 4.11442C0.280952 4.61452 0 5.2928 0 6.00004L0 10H6.66667V3.33337ZM21.3333 3.33337H10.6667V10H24V6.00004C24 5.2928 23.719 4.61452 23.219 4.11442C22.7189 3.61433 22.0406 3.33337 21.3333 3.33337ZM6.66667 20.6667H2.66667C1.95942 20.6667 1.28115 20.3858 0.781049 19.8857C0.280952 19.3856 0 18.7073 0 18V14H6.66667V20.6667ZM21.3333 20.6667H10.6667V14H24V18C24 18.7073 23.719 19.3856 23.219 19.8857C22.7189 20.3858 22.0406 20.6667 21.3333 20.6667Z" fill="#EF2B2D"/>
<path d="M9.66667 3.33337H7.704L7.68733 11H0V13H7.68333L7.66667 20.6667H9.66667V13H24V11H9.66667V3.33337Z" fill="#002868"/>
<path d="M9.66667 20.6667H10.6667V14H24V13H9.66667V20.6667ZM10.6667 3.33337H9.66667V11H24V10H10.6667V3.33337ZM7.66667 3.33337H6.66667V10H0V11H7.66667V3.33337ZM0 13V14H6.66667V20.6667H7.66667V13H0Z" fill="#EEEEEE"/>
</svg>
