<svg width="24" height="24" viewBox="0 0 24 24" fill="none" xmlns="http://www.w3.org/2000/svg">
<path fill-rule="evenodd" clip-rule="evenodd" d="M0 3V20.33H24V3H0Z" fill="#2E42A5"/>
<mask id="mask0_122_48" style="mask-type:luminance" maskUnits="userSpaceOnUse" x="0" y="3" width="24" height="18">
<path fill-rule="evenodd" clip-rule="evenodd" d="M0 3V20.33H24V3H0Z" fill="white"/>
</mask>
<g mask="url(#mask0_122_48)">
<path d="M-2.67224 19.0916L2.60926 21.2427L24.1193 5.33812L26.9055 2.14218L21.258 1.42371L12.4845 8.277L5.42251 12.8954L-2.67224 19.0916Z" fill="white"/>
<path d="M-1.94995 20.5987L0.741799 21.8464L25.905 1.84546H22.1273L-1.94995 20.5987Z" fill="#F50100"/>
<path d="M26.6724 19.0916L21.3909 21.2427L-0.119145 5.33812L-2.9054 2.14218L2.7421 1.42371L11.5156 8.277L18.5776 12.8954L26.6724 19.0916Z" fill="white"/>
<path d="M26.4923 20.1734L23.8013 21.4211L13.0868 12.8572L9.9098 11.9012L-3.17395 2.15308H0.60455L13.68 11.6701L17.1533 12.8168L26.4923 20.1734Z" fill="#F50100"/>
<path fill-rule="evenodd" clip-rule="evenodd" d="M14.8335 1.55591H9.1665V8.77674H-1.479V14.5534H9.1665V21.7742H14.8335V14.5534H25.521V8.77674H14.8335V1.55591Z" fill="#F50100"/>
<mask id="mask1_122_48" style="mask-type:luminance" maskUnits="userSpaceOnUse" x="-2" y="1" width="28" height="21">
<path fill-rule="evenodd" clip-rule="evenodd" d="M14.8335 1.55591H9.1665V8.77674H-1.479V14.5534H9.1665V21.7742H14.8335V14.5534H25.521V8.77674H14.8335V1.55591Z" fill="white"/>
</mask>
<g mask="url(#mask1_122_48)">
<path d="M9.1665 1.55586V0.111694H7.6665V1.55586H9.1665ZM14.8335 1.55586H16.3335V0.111694H14.8335V1.55586ZM9.1665 8.77669V10.2209H10.6665V8.77669H9.1665ZM-1.479 8.77669V7.33253H-2.979V8.77669H-1.479ZM-1.479 14.5534H-2.979V15.9975H-1.479V14.5534ZM9.1665 14.5534H10.6665V13.1092H9.1665V14.5534ZM9.1665 21.7742H7.6665V23.2184H9.1665V21.7742ZM14.8335 21.7742V23.2184H16.3335V21.7742H14.8335ZM14.8335 14.5534V13.1092H13.3335V14.5534H14.8335ZM25.521 14.5534V15.9975H27.021V14.5534H25.521ZM25.521 8.77669H27.021V7.33253H25.521V8.77669ZM14.8335 8.77669H13.3335V10.2209H14.8335V8.77669ZM9.1665 3.00003H14.8335V0.111694H9.1665V3.00003ZM10.6665 8.77669V1.55586H7.6665V8.77669H10.6665ZM-1.479 10.2209H9.1665V7.33253H-1.479V10.2209ZM0.0209961 14.5534V8.77669H-2.979V14.5534H0.0209961ZM9.1665 13.1092H-1.479V15.9975H9.1665V13.1092ZM10.6665 21.7742V14.5534H7.6665V21.7742H10.6665ZM14.8335 20.33H9.1665V23.2184H14.8335V20.33ZM13.3335 14.5534V21.7742H16.3335V14.5534H13.3335ZM25.521 13.1092H14.8335V15.9975H25.521V13.1092ZM24.021 8.77669V14.5534H27.021V8.77669H24.021ZM14.8335 10.2209H25.521V7.33253H14.8335V10.2209ZM13.3335 1.55586V8.77669H16.3335V1.55586H13.3335Z" fill="white"/>
</g>
</g>
</svg>
