<svg width="32" height="32" viewBox="0 0 32 32" fill="none" xmlns="http://www.w3.org/2000/svg">
<path fill-rule="evenodd" clip-rule="evenodd" d="M21.3333 12C21.3333 13.4144 20.7714 14.771 19.7712 15.7712C18.771 16.7714 17.4144 17.3333 16 17.3333C14.5855 17.3333 13.2289 16.7714 12.2287 15.7712C11.2285 14.771 10.6666 13.4144 10.6666 12C10.6666 10.5855 11.2285 9.22892 12.2287 8.22872C13.2289 7.22853 14.5855 6.66663 16 6.66663C17.4144 6.66663 18.771 7.22853 19.7712 8.22872C20.7714 9.22892 21.3333 10.5855 21.3333 12ZM18.6666 12C18.6666 12.7072 18.3857 13.3855 17.8856 13.8856C17.3855 14.3857 16.7072 14.6666 16 14.6666C15.2927 14.6666 14.6144 14.3857 14.1143 13.8856C13.6142 13.3855 13.3333 12.7072 13.3333 12C13.3333 11.2927 13.6142 10.6144 14.1143 10.1143C14.6144 9.61424 15.2927 9.33329 16 9.33329C16.7072 9.33329 17.3855 9.61424 17.8856 10.1143C18.3857 10.6144 18.6666 11.2927 18.6666 12Z" fill="black"/>
<path fill-rule="evenodd" clip-rule="evenodd" d="M16 1.33331C7.89998 1.33331 1.33331 7.89998 1.33331 16C1.33331 24.1 7.89998 30.6666 16 30.6666C24.1 30.6666 30.6666 24.1 30.6666 16C30.6666 7.89998 24.1 1.33331 16 1.33331ZM3.99998 16C3.99998 18.7866 4.95065 21.352 6.54398 23.3893C7.66324 21.9201 9.10685 20.7295 10.7622 19.9103C12.4175 19.0911 14.2397 18.6655 16.0866 18.6666C17.9098 18.6645 19.7094 19.0788 21.3482 19.8778C22.9869 20.6769 24.4215 21.8396 25.5426 23.2773C26.6979 21.7621 27.4758 19.9936 27.8118 18.1181C28.1479 16.2426 28.0326 14.314 27.4753 12.492C26.9181 10.6699 25.9349 9.00671 24.6073 7.64003C23.2797 6.27335 21.6456 5.24246 19.8405 4.63266C18.0353 4.02286 16.1109 3.85168 14.2265 4.13328C12.342 4.41488 10.5517 5.14117 9.00367 6.25205C7.45564 7.36293 6.19439 8.82647 5.32429 10.5216C4.45418 12.2167 4.00022 14.0946 3.99998 16ZM16 28C13.2452 28.0044 10.5735 27.0567 8.43731 25.3173C9.29706 24.0861 10.4416 23.0809 11.7734 22.3873C13.1053 21.6936 14.585 21.332 16.0866 21.3333C17.5695 21.332 19.0314 21.6846 20.3506 22.3617C21.6699 23.0389 22.8085 24.021 23.672 25.2266C21.5193 27.0227 18.8035 28.0044 16 28Z" fill="black"/>
</svg>
