<svg width="104" height="104" viewBox="0 0 104 104" fill="none" xmlns="http://www.w3.org/2000/svg">
<path d="M40.6357 6.21406C46.4604 -1.07135 57.5396 -1.07135 63.3643 6.21406V6.21406C66.4813 10.1126 71.379 12.1413 76.3397 11.5886V11.5886C85.6101 10.5558 93.4442 18.3899 92.4114 27.6603V27.6603C91.8587 32.621 93.8874 37.5187 97.7859 40.6357V40.6357C105.071 46.4604 105.071 57.5396 97.7859 63.3643V63.3643C93.8874 66.4813 91.8587 71.379 92.4114 76.3397V76.3397C93.4442 85.6101 85.6101 93.4442 76.3397 92.4114V92.4114C71.379 91.8587 66.4813 93.8874 63.3643 97.7859V97.7859C57.5396 105.071 46.4604 105.071 40.6357 97.7859V97.7859C37.5187 93.8874 32.621 91.8587 27.6603 92.4114V92.4114C18.3899 93.4442 10.5558 85.6101 11.5886 76.3397V76.3397C12.1413 71.379 10.1126 66.4813 6.21406 63.3643V63.3643C-1.07135 57.5396 -1.07135 46.4604 6.21406 40.6357V40.6357C10.1126 37.5187 12.1413 32.621 11.5886 27.6603V27.6603C10.5558 18.3899 18.3899 10.5558 27.6603 11.5886V11.5886C32.621 12.1413 37.5187 10.1126 40.6357 6.21406V6.21406Z" fill="url(#paint0_radial_126_3)"/>
<defs>
<radialGradient id="paint0_radial_126_3" cx="0" cy="0" r="1" gradientUnits="userSpaceOnUse" gradientTransform="translate(52 52) rotate(90) scale(60)">
<stop stop-color="#FFE167"/>
<stop offset="0.245192" stop-color="#D7E584"/>
<stop offset="0.639423" stop-color="#93C852"/>
<stop offset="1" stop-color="#BEF48E"/>
</radialGradient>
</defs>
</svg>
